<svg xmlns="http://www.w3.org/2000/svg" width="50" height="49.809" viewBox="0 0 50 49.809">
  <defs>
    <style>
      .cls-1, .cls-2 {
        fill: #6d7377;
      }

      .cls-1, .cls-2, .cls-4, .cls-5 {
        fill-rule: evenodd;
      }

      .cls-2 {
        stroke: #6d7377;
      }

      .cls-3 {
        fill: #abb0b4;
      }

      .cls-4 {
        fill: #696969;
      }

      .cls-5 {
        fill: #8a8f93;
      }
    </style>
  </defs>
  <g id="Group_3703" data-name="Group 3703" transform="translate(4016.767 -6626.076)">
    <g id="Group_3705" data-name="Group 3705" transform="translate(-4003.896 6630.521)">
      <path id="path118" class="cls-1" d="M312.429,95.345a1.842,1.842,0,0,0,.052-.733,1.418,1.418,0,0,0-.628.052h.576Z" transform="translate(-298.809 -94.605)"/>
      <path id="path138" class="cls-1" d="M293.825,95.866h-1.148l-.056-1.152v1.2Z" transform="translate(-280.781 -94.707)"/>
      <path id="path162" class="cls-1" d="M346.011,112.032l.793.109c-.007-.334-.157-.624-.157-.89v-.21l-.046-.027Z" transform="translate(-330.828 -109.987)"/>
      <path id="path164" class="cls-1" d="M198.131,115.835l.157.733c.34-.079,1.152-.2,1.152-.576a.365.365,0,0,0-.314-.367A3.394,3.394,0,0,0,198.131,115.835Z" transform="translate(-192.207 -114.31)"/>
      <path id="path188" class="cls-1" d="M291.784,122.79l.052-1.257h1.152v1.309h.628v-1.152l-.056,1.1h-.52v-1.309h-1.257Z" transform="translate(-279.997 -119.798)"/>
      <path id="path202" class="cls-1" d="M409.792,144.955l-.1-.052v.157h.1Z" transform="translate(-390.517 -141.754)"/>
      <path id="path238" class="cls-1" d="M435.508,142.5a2.484,2.484,0,0,0,.792.37h.209c.308,0,.838-.913.838-1.257,0-.466-.567-.667-.884-.834Z" transform="translate(-414.721 -137.886)"/>
      <path id="path242" class="cls-1" d="M103.577,174.324l.052-.052-.113-.05Z" transform="translate(-103.516 -169.237)"/>
      <path id="path260" class="cls-1" d="M486.277,178.559l.609.509.288-1.074Z" transform="translate(-462.311 -172.772)"/>
      <path id="path282" class="cls-1" d="M546.931,243.761l.463.654.628-.951Z" transform="translate(-519.168 -234.144)"/>
    </g>
    <g id="Group_3704" data-name="Group 3704" transform="translate(-4011.732 6630.527)">
      <path id="path124" class="cls-2" d="M283.162,97.7V96.39h1.257V97.7h.52l.056-1.1V94.766h-.576v1.1l-1.2.052v-1.2h-.564l-.064,2.985Z" transform="translate(-263.538 -94.714)"/>
      <path id="path182" class="cls-2" d="M327.907,100.439l.046.027v.21c0,.267.15.556.157.89l-.793-.109Zm-1.839,2.017.471.052.188-.011.284-.569,1.235.218.127.716.627.066c-.049-.586-.283-1.215-.366-1.781-.046-.311-.149-.607-.2-.9-.074-.454-.08-.511-.589-.511H327.8A16.707,16.707,0,0,0,326.068,102.456Z" transform="translate(-304.297 -99.418)"/>
      <path id="path200" class="cls-2" d="M236.62,99.721l.526,2.988.591-.124-.491-2.935Z" transform="translate(-220.45 -99.341)"/>
      <path id="path206" class="cls-2" d="M187.942,107.21a3.394,3.394,0,0,1,.995-.21.365.365,0,0,1,.314.367c0,.376-.812.5-1.152.576Zm-.681-.367.736,2.894.579-.12-.32-1.256c.642,0,.444-.166.929.275a5.849,5.849,0,0,0,.742.6l.632-.14a2.846,2.846,0,0,0-1.257-1V108c.21-.049.524-.327.524-.524v-.314a.823.823,0,0,0-.733-.733h-.1C188.52,106.424,187.7,106.834,187.261,106.843Z" transform="translate(-174.181 -105.691)"/>
      <path id="path224" class="cls-2" d="M380.79,111.238v.1h-.1v-.157c-.09-.387-.173-.959-.3-1.326-.166-.488-.032-.927-.7-.927a5.852,5.852,0,0,0-.5,1.332c-.065.2-.441,1.313-.441,1.392,0,.166.374.249.5.255l.6-1.788.518,2.161.609.151.9-2.8-.516-.179Z" transform="translate(-353.679 -108.044)"/>
      <path id="path244" class="cls-2" d="M135.32,121.3c.109.477.938,1.653.938,2.032v.157c0,.191-.362.419-.576.419h-.1c-.472,0-1.093-1.635-1.32-2.063l-.512.282a11.73,11.73,0,0,0,.663,1.38c.23.416.466.977,1.065.977.556,0,1.414-.5,1.414-1v-.157c0-.533-.864-1.691-1.007-2.279Z" transform="translate(-124.015 -119.407)"/>
      <path id="path250" class="cls-2" d="M424.852,129.968c.317.167.884.368.884.835,0,.344-.529,1.257-.838,1.257h-.209a2.485,2.485,0,0,1-.792-.37Zm-1.731,1.884a5.854,5.854,0,0,0,1.777.784c.764,0,1.414-1.072,1.414-1.938,0-.588-1.316-1.358-1.753-1.452Z" transform="translate(-395.274 -127.084)"/>
      <path id="path252" class="cls-2" d="M73.675,146.841l-.06-.1.113.05c.228.152,1.6,1.257,1.728,1.257a1.275,1.275,0,0,0,.471-.367c0-.245-1.082-2.251-1.2-2.776-.106.028-.471.267-.471.367,0,.294.739,1.46.838,1.885-.176-.118-1.6-1.257-1.623-1.257-.123,0-.419.283-.611.381l.768,1.871a17.872,17.872,0,0,1-1.518-1.2c-.125,0-.408.272-.487.386L74,149.212l.516-.382Z" transform="translate(-65.778 -141.76)"/>
      <path id="path264" class="cls-2" d="M463.193,166.578l-.288,1.074-.609-.509Zm-2.5.809v.1c.167.045.434.314.471.314.209,0,.42-.314.628-.314a3.857,3.857,0,0,1,.937.732l-.194.669.513.38c.116-.5.89-2.788.89-3.038,0-.063-.461-.419-.471-.419C463.224,165.815,461.178,167.274,460.695,167.386Z" transform="translate(-430.494 -161.363)"/>
      <path id="path270" class="cls-2" d="M506.685,187.883l.366.419c.361-.242.658-.8,1.147-.9.539-.105,1.184-.234,1.765-.392l-.5-.484-1.259.306c.009-.411.314-.986.314-1.309a1.514,1.514,0,0,0-.524-.471,10.331,10.331,0,0,1-.379,1.664C507.509,187.267,506.96,187.472,506.685,187.883Z" transform="translate(-473.605 -179.398)"/>
      <path id="path276" class="cls-2" d="M25.785,207.028l.383.328.58-.656,1.922,1.538c.033-.05.314-.407.314-.419,0-.231-1.832-1.453-1.832-1.624s.471-.535.471-.628c0-.144-.263-.3-.361-.362Z" transform="translate(-22.815 -198.286)"/>
      <path id="path302" class="cls-2" d="M524.482,233.249l-.628.951-.462-.654Zm-2.663.133.361.5c.08-.019.575-.157.576-.157.138,0,.69.8.785.943-.038.056-.367.56-.367.576,0,.2.259.368.314.576.12-.088,1.728-2.63,1.728-2.723,0-.145-.258-.312-.317-.534Z" transform="translate(-487.792 -223.935)"/>
      <path id="path316" class="cls-2" d="M-.822,247.486c.271.411,1.984.914,1.984,1.463,0,.257-.288.681-.524.681H.586c-.391,0-1.558-.935-2.042-1.048l-.262.524c.571.153,1.569,1.1,2.251,1.1H.69c.48,0,1.047-.855,1.047-1.362,0-.755-1.717-1.523-2.3-1.829l-.263.471Z" transform="translate(2.966 -237.48)"/>
      <path id="path330" class="cls-2" d="M550.936,268.5l.229.509,1.712-.867c-.1.19-1.1,1.879-1.1,1.885a3.075,3.075,0,0,0,.264.579l2.648-1.381-.254-.532-1.767.914c.1-.142,1.152-1.936,1.152-1.938,0-.251-.153-.314-.209-.524l-.026-.048Z" transform="translate(-515.085 -256.305)"/>
      <path id="path332" class="cls-2" d="M571.072,319.052c0,.155.136.214.17.509l2.814-.98c-.011-.126-.1-.524-.209-.524a9.663,9.663,0,0,0-1.419.466A5.865,5.865,0,0,0,571.072,319.052Z" transform="translate(-533.96 -304.073)"/>
      <path id="path334" class="cls-2" d="M-21.643,294.3l.468.177.322-.824,2.325.92.218-.55-2.306-.913.328-.845-.477-.146-.879,2.183Z" transform="translate(21.643 -279.756)"/>
    </g>
    <path id="Union_3" data-name="Union 3" class="cls-3" d="M6.706,33.252l.428-.912.946.08h.471c3.252,0,6.083-3.3,8.22-3.3h.21c.276,0,.942.234.942.471v.89c-.315-.084-.474-.471-1.152-.471-1.8,0-4.693,3.352-8.272,3.352l-.159.021Zm21.74.11c-3.762,0-6.8-3.352-8.272-3.352H19.86a2.233,2.233,0,0,0-1.047.524V29.487a2.169,2.169,0,0,1,1.1-.367h.1c2.073,0,4.984,3.3,8.115,3.3l.684.021.818-.119.383.941-1.466.1ZM28.08,31.9c-2.657,0-5.472-3.3-7.644-3.3h-.524a3.571,3.571,0,0,0-1.1.262V27.13c0-.227.777-.315,1.047-.315h.785c2.513,0,5.24,3.143,7.382,3.143h.419a.748.748,0,0,0,.262-.053c.063.133.68,1.781.68,1.834,0,.125-.37.157-.523.157Zm-20.053,0-.68-.061.693-1.925.562.06.315-.012c.892,0,2.846-1.284,3.509-1.675a8.881,8.881,0,0,1,3.716-1.468h.837c.362,0,.588.149.942.158v1.885a3.688,3.688,0,0,0-.994-.262h-.733c-1,0-2.969,1.343-3.716,1.782A8.367,8.367,0,0,1,8.5,31.9Zm19.424-3.928A14.118,14.118,0,0,1,23.807,27a14.564,14.564,0,0,0-3.633-.975h-.21c.186-.694,4.169-1.933,5.078-2.462a5.343,5.343,0,0,0,2.723-4.818c0-1.225-.576-2.27-.576-3.247v-.1a2.487,2.487,0,0,1,1.152-1.938l1.151.066,1.467-.013c2.042,0,4.136-.683,4.136-2.671v-.314c0-.422-.307-1.136-.314-1.466a4.688,4.688,0,0,1,1.885,3.09v.419a3.344,3.344,0,0,1-1.445,2.484,5.066,5.066,0,0,1-1.258.679,5.339,5.339,0,0,1-.757.238c-.194.038-.677.055-.677.265v.419a7.95,7.95,0,0,0,2.373-.664,11.79,11.79,0,0,0,1.711-1.274l.125.782-.02.632c0,1.044-1.058,1.714-1.847,2.027a7.809,7.809,0,0,1-1.534.4c-.265.046-.573.1-.811.132a1.859,1.859,0,0,1-.29,0c-.244-.013-.491-.027-.491.163v.419h.628a14.719,14.719,0,0,0,3.874-.89,4.236,4.236,0,0,1-1.007,2.606A3.474,3.474,0,0,1,32.634,22h-.628l-1.675-.157-.125.466,2.789.367,1.21-.047c-.028,1.291-1.709,2.566-3.141,2.566h-.419a8.569,8.569,0,0,1-1.34-.179c-.254-.045-.515-.163-.591.028-.12.3-.041.319.233.382a8.982,8.982,0,0,0,2.744.293,4.234,4.234,0,0,1-3.717,2.252Zm-18.743,0a4.363,4.363,0,0,1-3.665-2.252,9.572,9.572,0,0,0,3.036-.367l-.065-.417-1.97.3-.111-.042a3.383,3.383,0,0,1-3.456-2.619l.889.062a17.354,17.354,0,0,0,3.195-.376l-.12-.414-1.552.182L4.1,22a3.715,3.715,0,0,1-2.528-.928A4.26,4.26,0,0,1,.54,18.645v-.21c.4.034,1.347.377,1.853.5a7.9,7.9,0,0,0,1.968.335H4.99V18.7a8.945,8.945,0,0,1-3.305-.621c-.724-.282-1.834-1.16-1.668-2.259l.137-1.1c.276.174.516.491.82.722a5.039,5.039,0,0,0,.91.556,7.019,7.019,0,0,0,2.321.663v-.576A5.833,5.833,0,0,1,1.4,14.959a3.438,3.438,0,0,1-1.329-2.6A4.851,4.851,0,0,1,2.006,9.008a10.037,10.037,0,0,0-.314,1.676v.052c0,1.969,1.83,2.776,3.77,2.776h.89l2.094-.063a2.505,2.505,0,0,1,1.1,1.949v.21c0,.934-.524,1.824-.524,2.985v.629a6.163,6.163,0,0,0,.922,2.744,5.178,5.178,0,0,0,1.927,1.687c.924.564,4.7,1.616,4.9,2.378h-.262a15.792,15.792,0,0,0-3.606,1,13.953,13.953,0,0,1-3.672.936ZM19.86,24.145v-.157c0-.442-.471-.428-.471-.681V22.94H17.346v.524a.708.708,0,0,0-.471.576v.052c0,.465.852,1.172.89,1.624a19.882,19.882,0,0,0-2.363-1.3c-.866-.342-1.714-.672-2.575-1.037a4.6,4.6,0,0,1-3.02-4.259v-.1L9.742,19l.474-3.554.01-.679c0-1.059-.707-1.224-.785-1.519h.628a1.591,1.591,0,0,1,1.78,1.676,20.956,20.956,0,0,0,0,2.829c.094.608.7,1.623,1.257,1.623a7.811,7.811,0,0,0,1.907-.973,6.27,6.27,0,0,0,1.445-1.383,7.331,7.331,0,0,0,1.36-4.3l.013-1.363-.073-.784.6.776.594-.741L18.9,12.464a8,8,0,0,0,1.343,4.484,6.326,6.326,0,0,0,1.486,1.445,9.337,9.337,0,0,0,1.9.985c.639,0,1.309-1.144,1.309-1.938v-.628c0-2.149-.407-3.562,1.989-3.562h.419c-.1.269-.837.481-.837,1.571v.314l.466,3.4-.048.74c0,2.295-1.542,3.362-3.089,4.138-.713.357-1.809.742-2.573,1.039a11.189,11.189,0,0,0-2.3,1.317C19.013,25.247,19.86,24.629,19.86,24.145Zm-3.717-4.556c0,.99,1.034,1.565,1.152,2.985h2.2c.027-1.227.994-2.357.994-3.09v-.419c0-.785-.73-1.377-.837-1.781h-.105c-.014.626-.86,2.276-1.361,2.409.011-.134.439-.978.556-1.329a7.992,7.992,0,0,0,.439-1.394v-.053a3.178,3.178,0,0,0-.838-1.623C17.79,16.336,16.142,18.153,16.142,19.588ZM17.5,24.249V24.2c0-.267.148-.368.367-.419v-.367h.994v.262c0,.224.315.159.315.419v.157c0,.457-.749,1.031-.785,1.467A6.773,6.773,0,0,1,17.5,24.249ZM15.27,15.206a5.159,5.159,0,0,1,2.024-1.9,5.511,5.511,0,0,1-2.932,4.976A7.071,7.071,0,0,1,15.27,15.206Zm5.044,1.153a5.463,5.463,0,0,1-.821-3.055,5.73,5.73,0,0,1,2.88,4.923A5.36,5.36,0,0,1,20.314,16.358Zm-.873-3.579V9.218a5.874,5.874,0,0,0-1.1-1.571c-.13.245-.995,1.332-.995,1.467v3.666a4.142,4.142,0,0,0-1.361.89c-.187-.8-.709-2.107-.988-2.939-.316-.943-.608-2.04-.97-2.958s-.608-2.108-.991-2.937a5.632,5.632,0,0,0-.716-1.222c-.258-.353-.845-.737-.995-.942a2.547,2.547,0,0,1,.837-.157h.367a3.168,3.168,0,0,1,1.5.6c.613.456.54.521.731,1.363.2.9.792,2.521.859,3.33l.413-.17c-.04-.536-.659-2.808-.852-3.475a2.868,2.868,0,0,0-.646-1.5c-.229-.229-.933-.895-1.061-1.086a3.54,3.54,0,0,1,.89-.157h.053a2.967,2.967,0,0,1,1.989.733l.72,3.512.377-.067c0-1.12-.678-2.777-.678-3.864,0-.616.984-1.728,1.571-1.728a2.369,2.369,0,0,1,1.57,1.728v.1l-.63,3.77.314.061.717-3.4a2.439,2.439,0,0,1,2.007-.846h.1a2.407,2.407,0,0,1,.785.158c-.773,1.155-1.258.559-1.678,2.615a30.405,30.405,0,0,0-.782,3.46l.3.174c.238-.494.725-2.745.9-3.423.22-.859.146-.855.807-1.34a2.982,2.982,0,0,1,1.55-.545l1.052.125c-.125.212-.734.671-1.009,1.017a4.524,4.524,0,0,0-.7,1.235c-.326.835-.727,2.065-.963,2.913-.243.875-.654,2.06-.979,2.949A29.371,29.371,0,0,0,20.8,13.67C20.566,13.606,20.031,12.917,19.441,12.779Zm-1.623-3.4a3.037,3.037,0,0,1,.628-.943l.51.951-.579,1.163C18.276,10.248,17.818,9.541,17.818,9.375Z" transform="translate(-4010.135 6638.96)"/>
    <path id="path370" class="cls-4" d="M269.207,489.073c0,.705.942,1.716.942,2.252v.209h1.571c.017-.768.942-2.013.942-2.724V488.6a1.709,1.709,0,0,0-.419-1.152c-.117.5-.956,1.886-1.518,1.886h-.052a.3.3,0,0,1-.262-.262c0-.3.995-1.859.995-2.462s-.271-.849-.367-1.257C270.611,485.469,269.207,488.126,269.207,489.073Z" transform="translate(-4262.729 6169.632)"/>
    <path id="path390" class="cls-5" d="M262.153,478.1c0-.948,1.4-3.6,1.832-3.719.1.408.366.64.366,1.257s-.995,2.161-.995,2.462a.3.3,0,0,0,.262.262h.052c.563,0,1.4-1.383,1.518-1.885a1.709,1.709,0,0,1,.419,1.152v.209c0,.711-.925,1.956-.942,2.724H263.1v-.209C263.1,479.812,262.153,478.8,262.153,478.1Zm1.571-.052c.011-.134.439-.978.556-1.329a7.976,7.976,0,0,0,.439-1.394v-.052a3.182,3.182,0,0,0-.838-1.624c-.551,1.043-2.2,2.86-2.2,4.295,0,.99,1.034,1.565,1.152,2.985h2.2c.027-1.227.995-2.357.995-3.09v-.419c0-.785-.73-1.377-.838-1.781h-.1C265.071,476.26,264.224,477.91,263.723,478.044Z" transform="translate(-4255.674 6180.609)"/>
    <path id="path508" class="cls-5" d="M13.525,254.434v-1.048a2.169,2.169,0,0,1,1.1-.367h.1c2.073,0,4.984,3.3,8.115,3.3l.684.021.819-.119.383.94-1.466.1h-.1c-3.762,0-6.8-3.352-8.272-3.352h-.314a2.236,2.236,0,0,0-1.047.524ZM3.211,257.262l-.159.021-1.634-.131.429-.912.945.079h.471c3.253,0,6.083-3.3,8.22-3.3h.209c.276,0,.942.234.942.471v.89c-.315-.084-.474-.471-1.152-.471-1.8,0-4.693,3.352-8.272,3.352Zm10.314-6.233c0-.227.777-.314,1.047-.314h.785c2.512,0,5.24,3.142,7.382,3.142h.419a.757.757,0,0,0,.262-.052c.064.133.681,1.781.681,1.833,0,.126-.37.157-.524.157h-.785c-2.657,0-5.472-3.3-7.644-3.3h-.524a3.582,3.582,0,0,0-1.1.262Zm-9.9,2.828c.892,0,2.846-1.284,3.509-1.675a8.878,8.878,0,0,1,3.716-1.468h.838c.362,0,.587.149.942.157v1.885a3.693,3.693,0,0,0-.995-.262h-.733c-1,0-2.97,1.343-3.716,1.782a8.371,8.371,0,0,1-3.98,1.517H2.74l-.68-.061.692-1.925.562.06.316-.012Zm8.953-6.547h.995v.262c0,.224.314.159.314.419v.157c0,.457-.749,1.031-.785,1.467a6.779,6.779,0,0,1-.89-1.467V248.1c0-.267.148-.368.366-.419Zm4.5-5.185a5.363,5.363,0,0,1-2.059-1.868,5.464,5.464,0,0,1-.821-3.055,5.73,5.73,0,0,1,2.88,4.923Zm-8.01.052a7.071,7.071,0,0,1,.907-3.073,5.159,5.159,0,0,1,2.025-1.9A5.512,5.512,0,0,1,9.075,242.179Zm.65.126a6.263,6.263,0,0,0,1.445-1.382,7.33,7.33,0,0,0,1.36-4.3l.012-1.363-.073-.784.6.776.594-.741-.043,1.849a8,8,0,0,0,1.343,4.484,6.336,6.336,0,0,0,1.487,1.446,9.321,9.321,0,0,0,1.9.984c.639,0,1.309-1.144,1.309-1.938v-.628c0-2.149-.406-3.561,1.99-3.561h.419c-.1.269-.838.48-.838,1.571v.314l.467,3.4-.048.74c0,2.294-1.541,3.362-3.089,4.138-.713.358-1.81.742-2.573,1.04a11.207,11.207,0,0,0-2.3,1.317c.043-.521.89-1.14.89-1.624v-.157c0-.442-.471-.428-.471-.681v-.367H12.059v.524a.708.708,0,0,0-.471.576v.052c0,.465.852,1.171.89,1.624a19.812,19.812,0,0,0-2.363-1.3c-.866-.342-1.715-.672-2.575-1.038a4.6,4.6,0,0,1-3.02-4.259v-.1l-.066-.009.474-3.554.01-.68c0-1.059-.707-1.224-.785-1.519h.628a1.591,1.591,0,0,1,1.78,1.676,20.981,20.981,0,0,0,0,2.828c.093.608.7,1.623,1.257,1.623a7.816,7.816,0,0,0,1.906-.973Zm2.806-9.03a3.034,3.034,0,0,1,.628-.943l.51.95-.578,1.163C12.989,234.148,12.53,233.441,12.53,233.275Zm13.141,4.138c2.042,0,4.136-.683,4.136-2.671v-.314c0-.422-.307-1.137-.314-1.466a4.688,4.688,0,0,1,1.885,3.09v.419a3.343,3.343,0,0,1-1.444,2.483,5.06,5.06,0,0,1-1.258.68,5.427,5.427,0,0,1-.757.238c-.193.038-.677.055-.677.265v.419a7.932,7.932,0,0,0,2.373-.664,11.764,11.764,0,0,0,1.711-1.274l.125.782-.02.632c0,1.044-1.058,1.714-1.848,2.027a7.762,7.762,0,0,1-1.534.4c-.265.046-.573.1-.811.132-.282.032-.782-.109-.782.161v.419h.628a14.709,14.709,0,0,0,3.874-.89,4.237,4.237,0,0,1-1.007,2.606,3.473,3.473,0,0,1-2.605,1.008h-.628l-1.675-.157-.125.466,2.789.367,1.21-.047c-.029,1.291-1.71,2.566-3.141,2.566h-.419a8.541,8.541,0,0,1-1.34-.179c-.254-.045-.515-.163-.591.028-.12.3-.041.318.234.382a8.982,8.982,0,0,0,2.744.293,4.235,4.235,0,0,1-3.717,2.252h-.524a14.11,14.11,0,0,1-3.644-.963,14.56,14.56,0,0,0-3.633-.975h-.209c.185-.694,4.169-1.933,5.078-2.462a5.343,5.343,0,0,0,2.723-4.818c0-1.225-.576-2.27-.576-3.247v-.1a2.487,2.487,0,0,1,1.152-1.938l1.151.066Zm-30.89-1.152a4.85,4.85,0,0,1,1.937-3.352,10,10,0,0,0-.314,1.676v.052c0,1.969,1.83,2.776,3.77,2.776h.89l2.094-.063a2.505,2.505,0,0,1,1.1,1.949v.21c0,.934-.524,1.824-.524,2.985v.629a6.164,6.164,0,0,0,.921,2.745,5.18,5.18,0,0,0,1.927,1.686c.924.564,4.7,1.616,4.9,2.378h-.262a15.816,15.816,0,0,0-3.606,1,13.937,13.937,0,0,1-3.671.936H3.421a4.363,4.363,0,0,1-3.665-2.252,9.581,9.581,0,0,0,3.037-.367l-.065-.417-1.97.3-.111-.043a3.383,3.383,0,0,1-3.456-2.619l.889.062a17.334,17.334,0,0,0,3.195-.376l-.12-.414-1.552.183-.789-.03a3.715,3.715,0,0,1-2.528-.928,4.259,4.259,0,0,1-1.032-2.424v-.21c.4.033,1.348.376,1.854.5a7.9,7.9,0,0,0,1.968.335H-.3V242.6a8.953,8.953,0,0,1-3.306-.621c-.724-.283-1.834-1.16-1.668-2.26l.137-1.1c.276.174.517.491.82.722a5.064,5.064,0,0,0,.91.556,7.021,7.021,0,0,0,2.321.663v-.576a5.832,5.832,0,0,1-2.806-1.121A3.437,3.437,0,0,1-5.218,236.26Zm16.754-10.632c0-.616.984-1.728,1.571-1.728a2.369,2.369,0,0,1,1.571,1.728v.1l-.63,3.771.314.061.717-3.405a2.437,2.437,0,0,1,2.007-.845h.1a2.413,2.413,0,0,1,.785.157c-.773,1.155-1.258.56-1.679,2.615a30.4,30.4,0,0,0-.782,3.46l.3.174c.239-.494.725-2.745.9-3.422.221-.859.147-.855.807-1.34a2.98,2.98,0,0,1,1.55-.545l1.052.126c-.125.211-.734.671-1.009,1.017a4.521,4.521,0,0,0-.7,1.235c-.326.835-.727,2.064-.963,2.913-.243.875-.654,2.059-.979,2.949a29.351,29.351,0,0,0-.959,2.917c-.236-.063-.771-.753-1.361-.89v-3.562a5.867,5.867,0,0,0-1.1-1.571c-.13.245-.995,1.332-.995,1.467v3.666a4.147,4.147,0,0,0-1.361.89c-.187-.8-.709-2.107-.988-2.94-.316-.943-.608-2.04-.97-2.958s-.608-2.108-.991-2.937a5.647,5.647,0,0,0-.716-1.222c-.258-.353-.845-.737-1-.942a2.558,2.558,0,0,1,.838-.157h.366a3.173,3.173,0,0,1,1.5.6c.614.456.541.522.731,1.363.2.9.792,2.521.859,3.33l.413-.17c-.04-.536-.659-2.808-.853-3.475a2.872,2.872,0,0,0-.646-1.5c-.229-.229-.933-.895-1.061-1.086a3.518,3.518,0,0,1,.89-.157h.052a2.968,2.968,0,0,1,1.99.733l.72,3.512.377-.066c0-1.12-.679-2.777-.679-3.864Zm-.367-.1c-.658-.176-.816-.576-1.937-.576H9.075a8.064,8.064,0,0,0-1.635.327l1.048.992-.04.043a10.112,10.112,0,0,0-1.2-.262H6.667c-.439,0-1.28.168-1.361.471.657.176,1.62,1.516,1.937,2.147A24.329,24.329,0,0,1,8.3,231.693c.25.927,2.031,5.759,2.031,6.191,0,.076-.546.731-.639.879a6.117,6.117,0,0,0-.529,1.042,7.582,7.582,0,0,0-.507,2.635,4.273,4.273,0,0,1-.733.314c-.511,0-.838-.864-.838-1.414A14.763,14.763,0,0,0,7,237.967a2.085,2.085,0,0,0-2.274-1.308l-4.083.177H.227c-1.683,0-3.246-.687-3.246-2.3v-.052A6.305,6.305,0,0,1-2.873,233c.079-.315.3-1.051.325-1.3a8.684,8.684,0,0,0-2.108,1.714,4.469,4.469,0,0,0-1.086,2.79c0,.67.262,1.22.262,1.624a8.307,8.307,0,0,0-.419,1.414v.733a3.668,3.668,0,0,0,.576,1.571,5.291,5.291,0,0,0,.435,2.707A4.882,4.882,0,0,0-3.438,246,3.458,3.458,0,0,0-2.4,248.319a5.264,5.264,0,0,0,.924.752c.635.423.42.317.805.923a4.712,4.712,0,0,0,4.3,2.5h.052a7.29,7.29,0,0,0,1.936-.367c.357-.1,1.593-.617,1.728-.628a9.848,9.848,0,0,1-4.188,1.833,2.412,2.412,0,0,1-.736-.159l-1.672,4.4,1.728.206h.89c3.73,0,6.508-3.247,7.749-3.247H11.8c.459,0,1.031.6,1.309.786.278-.186.85-.786,1.309-.786H15.1c1.3,0,3.857,3.247,8.063,3.247l.685.03,1.659-.255-1.716-4.384a2.035,2.035,0,0,1-.681.157h-.262a10.968,10.968,0,0,1-3.979-1.833c.156.013,1.335.521,1.686.618a7.694,7.694,0,0,0,1.979.377h.157a4.731,4.731,0,0,0,4.2-2.5c.372-.584.171-.5.774-.9a5.426,5.426,0,0,0,.929-.746A3.452,3.452,0,0,0,29.651,246a5.085,5.085,0,0,0,1.432-1.71,5.432,5.432,0,0,0,.452-2.742,3.48,3.48,0,0,0,.576-1.728v-.367a3.791,3.791,0,0,0-.387-1.5c-.071-.192.23-1.226.23-1.642v-.21a4.606,4.606,0,0,0-1.086-2.685,8.94,8.94,0,0,0-2.108-1.714,18.305,18.305,0,0,1,.471,2.3v.262c0,1.76-1.294,2.566-3.037,2.566l-1.413,0-2.932-.155h-.366c-2.821,0-2.356,1.784-2.356,4.295v.524c0,.439-.4,1.257-.785,1.257a2.862,2.862,0,0,1-.785-.314,7.588,7.588,0,0,0-.492-2.6,7.521,7.521,0,0,0-1.183-1.906c.035-.419.815-2.576,1-3.136.34-1.019.693-2.079,1.034-3.1a26.4,26.4,0,0,1,1.071-3.066,6.767,6.767,0,0,1,.82-1.222c.255-.354.9-.691,1.1-1a2.7,2.7,0,0,0-1.361-.367h-.524c-.455,0-.94.255-1.257.262l-.04-.043,1.035-1a8.884,8.884,0,0,0-1.623-.314h-.157c-1.043,0-1.442.483-1.937.524a2.7,2.7,0,0,0-1.937-1.938,2.645,2.645,0,0,0-1.937,1.99Z" transform="translate(-4004.847 6415.061)"/>
    <path id="path576" class="cls-1" d="M-59.914,43.043a5.865,5.865,0,0,1,1.355-.53,9.66,9.66,0,0,1,1.419-.466c.107,0,.2.4.209.524l-2.814.98C-59.778,43.257-59.914,43.2-59.914,43.043Zm-36.232-2.619.477.146-.328.845,2.306.913-.218.55-2.325-.92-.322.824-.468-.177Zm37.62-1.566.025.048c.056.21.209.273.209.524,0,0-1.057,1.8-1.152,1.938l1.767-.914.254.532-2.648,1.381a3.071,3.071,0,0,1-.264-.58c0-.007,1-1.7,1.1-1.886l-1.712.867-.229-.509,2.649-1.4Zm-35,1.934c-.682,0-1.68-.947-2.251-1.1l.262-.524c.484.113,1.651,1.048,2.042,1.048h.052c.236,0,.524-.424.524-.681,0-.55-1.713-1.053-1.984-1.463l.263-.471c.579.307,2.3,1.074,2.3,1.829,0,.507-.567,1.362-1.047,1.362Zm35.5,11.627a3.48,3.48,0,0,1-.576,1.728,5.432,5.432,0,0,1-.452,2.742A5.085,5.085,0,0,1-60.49,58.6a3.452,3.452,0,0,1-1.06,2.344,5.428,5.428,0,0,1-.929.746c-.6.4-.4.318-.774.9a4.731,4.731,0,0,1-4.2,2.5h-.157a7.7,7.7,0,0,1-1.979-.377c-.351-.1-1.531-.6-1.686-.618A10.968,10.968,0,0,0-67.3,65.931h.262a2.036,2.036,0,0,0,.681-.157l1.716,4.384-1.659.255-.685-.03c-4.206,0-6.763-3.247-8.063-3.247h-.681c-.459,0-1.031.6-1.309.786-.278-.186-.85-.786-1.309-.786h-.681c-1.241,0-4.019,3.247-7.749,3.247h-.89l-1.728-.206,1.672-4.4a2.412,2.412,0,0,0,.736.159A9.848,9.848,0,0,0-82.793,64.1c-.135.011-1.372.526-1.728.628a7.29,7.29,0,0,1-1.936.367h-.052a4.712,4.712,0,0,1-4.3-2.5c-.386-.605-.171-.5-.805-.923a5.265,5.265,0,0,1-.924-.752A3.458,3.458,0,0,1-93.579,58.6a4.882,4.882,0,0,1-1.449-1.745,5.291,5.291,0,0,1-.435-2.707,3.668,3.668,0,0,1-.576-1.571v-.733a8.307,8.307,0,0,1,.419-1.414c0-.4-.262-.954-.262-1.624a4.469,4.469,0,0,1,1.086-2.79A8.684,8.684,0,0,1-92.689,44.3c-.021.248-.246.984-.325,1.3a6.305,6.305,0,0,0-.147,1.477v.052c0,1.617,1.563,2.3,3.246,2.3h.419l4.083-.177a2.085,2.085,0,0,1,2.274,1.308,14.763,14.763,0,0,1,.083,3.373c0,.55.326,1.414.838,1.414a4.274,4.274,0,0,0,.733-.314,7.582,7.582,0,0,1,.507-2.635,6.115,6.115,0,0,1,.529-1.042c.094-.148.639-.8.639-.879,0-.432-1.781-5.264-2.031-6.191A24.329,24.329,0,0,0-82.9,41.262c-.317-.631-1.28-1.972-1.937-2.147.081-.3.922-.471,1.361-.471h.576a10.112,10.112,0,0,1,1.2.262l.04-.043-1.048-.992a8.063,8.063,0,0,1,1.635-.327h.157c1.121,0,1.279.4,1.937.576a2.645,2.645,0,0,1,1.937-1.99A2.7,2.7,0,0,1-75.1,38.067c.5-.041.894-.524,1.937-.524H-73a8.884,8.884,0,0,1,1.623.314l-1.035,1,.04.043c.316-.007.8-.262,1.257-.262h.524a2.7,2.7,0,0,1,1.361.367c-.2.3-.844.642-1.1,1a6.767,6.767,0,0,0-.82,1.222,26.4,26.4,0,0,0-1.071,3.066c-.341,1.025-.694,2.084-1.034,3.1-.187.56-.967,2.717-1,3.136a7.521,7.521,0,0,1,1.183,1.906,7.588,7.588,0,0,1,.492,2.6,2.862,2.862,0,0,0,.785.314c.386,0,.785-.818.785-1.257V53.57c0-2.511-.465-4.295,2.356-4.295h.366l2.932.155,1.413,0c1.742,0,3.037-.806,3.037-2.566V46.6a18.3,18.3,0,0,0-.471-2.3,8.94,8.94,0,0,1,2.108,1.714A4.606,4.606,0,0,1-58.186,48.7v.21c0,.416-.3,1.449-.23,1.642a3.791,3.791,0,0,1,.387,1.5v.367Zm-1.888-15.723c.059.223.317.389.317.534,0,.094-1.608,2.636-1.728,2.723-.056-.208-.314-.377-.314-.576,0-.017.329-.52.367-.576-.095-.142-.647-.943-.785-.943,0,0-.5.138-.576.157l-.361-.5Zm-32.662-1.713c.1.064.361.218.361.362,0,.094-.471.47-.471.628s1.832,1.393,1.832,1.624c0,.012-.281.369-.314.419l-1.922-1.538-.58.656-.383-.328Zm28.633,1.567c.275-.411.824-.616.93-1.164a10.334,10.334,0,0,0,.379-1.664,1.514,1.514,0,0,1,.524.471c0,.324-.3.9-.314,1.309l1.259-.306.5.484c-.581.159-1.226.287-1.765.392-.488.1-.786.654-1.147.9Zm-2.88-2.462c.483-.113,2.529-1.571,2.775-1.571.01,0,.471.356.471.419,0,.249-.774,2.54-.89,3.038l-.513-.38.194-.669a3.857,3.857,0,0,0-.937-.732c-.209,0-.42.314-.628.314-.037,0-.3-.27-.471-.314Zm-.916-3.861c.437.093,1.753.864,1.753,1.452,0,.866-.65,1.938-1.414,1.938a5.855,5.855,0,0,1-1.777-.784Zm-21.336,2.866-.052.052.841,1.989-.516.382-2.382-1.88c.079-.114.361-.386.487-.386a17.87,17.87,0,0,0,1.518,1.2l-.768-1.871c.192-.1.487-.381.611-.381.025,0,1.447,1.139,1.623,1.257-.1-.425-.838-1.591-.838-1.885,0-.1.365-.338.471-.367.122.525,1.2,2.531,1.2,2.776a1.275,1.275,0,0,1-.471.367C-87.479,34.349-88.849,33.244-89.076,33.092Zm13.822-1.99a16.708,16.708,0,0,1,1.728-2.723h.052c.509,0,.515.057.589.511.048.3.151.592.2.9.083.565.318,1.2.366,1.781l-.627-.066-.127-.716-1.235-.218-.284.569-.188.011ZM-87.3,30.787l.512-.282c.227.428.848,2.063,1.32,2.063h.1c.214,0,.576-.228.576-.419v-.157c0-.378-.829-1.555-.938-2.032l.559-.247c.142.587,1.007,1.746,1.007,2.279v.157c0,.5-.857,1-1.414,1-.6,0-.835-.561-1.065-.977A11.729,11.729,0,0,1-87.3,30.787Zm17.277.419.1.052.576-1.781.516.179-.9,2.8-.609-.151-.518-2.161-.6,1.788c-.128-.006-.5-.089-.5-.255,0-.079.376-1.2.441-1.392a5.852,5.852,0,0,1,.5-1.332c.664,0,.531.439.7.927C-70.192,30.247-70.109,30.819-70.019,31.206Zm-13.927-1.99c.442-.01,1.259-.419,1.728-.419h.1a.823.823,0,0,1,.733.733v.314c0,.2-.314.475-.524.524v.1a2.847,2.847,0,0,1,1.257,1l-.632.14a5.85,5.85,0,0,1-.742-.6c-.485-.441-.287-.275-.929-.275l.32,1.256-.579.12Zm8.377.733V31.1H-76.2V29.792h-1.152l-.052,1.257h-.576l.064-2.985h.564l.056,1.152h1.148v-1.1a1.418,1.418,0,0,1,.628-.052,1.841,1.841,0,0,1-.052.733Zm-4.66-1.576.491,2.935-.591.124-.526-2.988ZM-102.06,41.786A53.977,53.977,0,0,0-100.344,54a54.447,54.447,0,0,0,3.763,10.22c.78,1.585,1.611,3.023,2.478,4.487a23.407,23.407,0,0,0,1.348,2.108c.37.481.427.477,1.118.61.437.084,1,.293,1.414.366.9.16,1.923.436,2.836.62,1,.2,1.962.326,3,.505a43.352,43.352,0,0,0,6.514.5h1.728a63.412,63.412,0,0,0,7.7-.679c1.141-.131,2.42-.451,3.512-.677.554-.115,1.123-.288,1.67-.425a13.583,13.583,0,0,1,1.676-.419c.49-.927,1.252-1.927,1.815-2.9.6-1.028,1.129-2,1.711-3.055a55.934,55.934,0,0,0,2.882-6.649c.464-1.182.777-2.345,1.153-3.612a33.591,33.591,0,0,0,.933-3.832,52.806,52.806,0,0,0,1.034-8.5v-.89c0-.456-4.454-5.11-5.066-5.722a51.767,51.767,0,0,0-5.8-4.984,35.648,35.648,0,0,0-3.2-2.2c-.568-.326-1.1-.666-1.661-1.009s-1.191-.622-1.749-.974c-.7-.442-6.828-3.289-7.5-3.289a37.572,37.572,0,0,0-3.857,1.536c-1.3.554-2.424,1.163-3.629,1.764a57.7,57.7,0,0,0-6.628,4.159,43.491,43.491,0,0,0-5.82,4.967A43.683,43.683,0,0,0-102.06,41.786Z" transform="translate(-3914.707 6602.464)"/>
  </g>
</svg>
