<svg xmlns="http://www.w3.org/2000/svg" width="55" height="58" viewBox="0 0 55 58">
  <defs>
    <style>
      .cls-1 {
        fill: #6d7377;
      }

      .cls-2 {
        fill: #abb0b4;
      }

      .cls-3 {
        fill: #a2a2a2;
      }

      .cls-4 {
        fill: #fff;
      }
    </style>
  </defs>
  <g id="file_1_" data-name="file (1)" transform="translate(-1.5)">
    <g id="Group_3700" data-name="Group 3700">
      <path id="Path_1236" data-name="Path 1236" class="cls-1" d="M46.5,14,32.5,0H1.5V58h45Z"/>
      <g id="Group_3699" data-name="Group 3699">
        <path id="Path_1237" data-name="Path 1237" class="cls-2" d="M11.5,23h25a1,1,0,0,0,0-2h-25a1,1,0,0,0,0,2Z"/>
        <path id="Path_1238" data-name="Path 1238" class="cls-2" d="M11.5,15h10a1,1,0,0,0,0-2h-10a1,1,0,0,0,0,2Z"/>
        <path id="Path_1239" data-name="Path 1239" class="cls-2" d="M36.5,29h-25a1,1,0,0,0,0,2h25a1,1,0,0,0,0-2Z"/>
        <path id="Path_1240" data-name="Path 1240" class="cls-2" d="M36.5,37h-25a1,1,0,0,0,0,2h25a1,1,0,0,0,0-2Z"/>
        <path id="Path_1241" data-name="Path 1241" class="cls-2" d="M36.5,45h-25a1,1,0,0,0,0,2h25a1,1,0,0,0,0-2Z"/>
      </g>
      <path id="Path_1242" data-name="Path 1242" class="cls-2" d="M32.5,0V14h14Z"/>
    </g>
    <g id="Group_3701" data-name="Group 3701">
      <circle id="Ellipse_63" data-name="Ellipse 63" class="cls-3" cx="12" cy="12" r="12" transform="translate(32.5 34)"/>
      <path id="Path_1243" data-name="Path 1243" class="cls-4" d="M51.071,40.179a1,1,0,0,0-1.392.25l-5.6,8.04-3.949-3.242a1,1,0,0,0-1.268,1.546L43.652,50.7a1,1,0,0,0,.634.227,1.062,1.062,0,0,0,.137-.009,1,1,0,0,0,.684-.419l6.214-8.929A1,1,0,0,0,51.071,40.179Z"/>
    </g>
  </g>
</svg>
